<svg version="1.1" id="Layer_1" xmlns="http://www.w3.org/2000/svg" xmlns:xlink="http://www.w3.org/1999/xlink" x="0px" y="0px"
	 width="100%" viewBox="0 0 552 412" enable-background="new 0 0 552 412" xml:space="preserve">
<path fill="#171717" opacity="1.000000" stroke="none"
	d="
M117.645737,203.855087
	C119.120209,201.847549 120.628334,199.863754 122.062996,197.828156
	C126.826057,191.069946 128.935974,190.329102 137.498215,192.601074
	C131.111816,200.687271 124.786346,208.731415 118.418510,216.741882
	C115.840935,219.984375 114.936729,223.155411 118.822044,226.998367
	C121.192177,227.636505 123.547989,228.753464 125.935074,228.824860
	C133.743347,229.058426 141.563019,228.911240 149.378311,228.910583
	C151.759537,228.910385 154.140762,228.910568 157.745422,228.910568
	C152.995911,221.451904 149.210892,215.048492 144.846680,209.067703
	C144.038345,207.959930 140.587524,207.829987 138.900238,208.540482
	C136.470993,209.563385 136.084854,211.860138 137.954575,214.292648
	C139.291443,216.031860 140.193649,218.105179 141.754272,220.844818
	C137.114868,220.844818 133.510010,220.897980 129.907959,220.820923
	C128.266418,220.785812 126.630394,220.493500 125.132866,219.528366
	C135.540558,207.719696 145.948257,195.911041 157.085159,183.274994
	C145.469223,183.274994 135.059357,183.112900 124.664246,183.431519
	C122.892578,183.485825 120.762314,185.263779 119.524353,186.822525
	C115.606453,191.755722 111.955086,196.908813 108.378677,202.099518
	C107.427986,203.479355 107.116264,205.299423 106.456741,207.595535
	C108.544106,211.069962 110.631470,214.544373 112.962364,218.424149
	C115.969841,214.311295 120.074303,211.381241 116.418602,206.225708
	C116.130157,205.818924 116.769661,204.754150 117.645737,203.855087
z"/>
<path fill="#171717" opacity="1.000000" stroke="none"
	d="
M439.114410,219.205582
	C437.668762,217.048553 436.223114,214.891510 434.758453,212.706116
	C443.209320,208.186264 445.935364,203.013138 444.249115,195.271912
	C442.756622,188.420105 437.218842,184.334732 428.655426,184.005020
	C423.831055,183.819244 418.993835,183.835129 414.166992,183.951233
	C413.121094,183.976379 412.094879,184.819901 411.059601,185.286469
	C412.180786,185.852676 413.284241,186.863205 414.426239,186.908829
	C419.582489,187.114792 424.764923,186.807678 429.909271,187.135315
	C437.567780,187.623032 441.604065,192.441025 441.162659,200.025284
	C440.767059,206.822678 435.950409,210.544876 426.977905,210.771805
	C421.730377,210.904510 416.476746,210.795990 411.205322,210.795990
	C411.205322,216.879242 411.205322,222.329971 411.205322,228.015259
	C412.026031,228.015259 413.195038,228.082458 413.204590,228.005646
	C413.775391,223.410049 414.250763,218.802582 414.722870,214.313309
	C425.158356,212.190079 434.420532,212.880157 439.078186,224.522751
	C439.435913,225.416962 440.098267,226.368576 440.888123,226.867157
	C441.973328,227.552139 443.315643,227.829788 444.547821,228.281982
	C444.704224,228.012970 444.860657,227.743958 445.017090,227.474960
	C443.190460,224.924133 441.363831,222.373306 439.114410,219.205582
z"/>
<path fill="#171717" opacity="1.000000" stroke="none"
	d="
M362.088837,218.191879
	C366.421997,226.672943 372.006409,229.404495 382.200500,228.029297
	C389.282227,227.073959 394.729919,222.404495 395.444458,214.622101
	C396.324371,205.038391 395.914612,195.333588 395.941162,185.680786
	C395.942780,185.095642 394.878754,184.507584 394.310577,183.920898
	C393.849304,184.458466 393.106140,184.940826 392.987732,185.545547
	C392.767487,186.669846 392.917938,187.865570 392.902771,189.031387
	C392.800903,196.857452 393.049469,204.708603 392.494873,212.502579
	C391.914764,220.655151 387.412537,224.783371 379.854553,225.210175
	C369.745514,225.781006 364.285339,220.865158 364.017792,210.486832
	C363.791229,201.697662 363.971100,192.897995 363.971100,183.880585
	C362.720459,184.033875 361.225464,184.140488 361.226593,184.227814
	C361.369324,195.295944 361.622101,206.362656 362.088837,218.191879
z"/>
<path fill="#171717" opacity="1.000000" stroke="none"
	d="
M171.716370,209.970581
	C170.238373,201.644791 172.688950,194.668747 179.755630,190.027679
	C187.078735,185.218170 194.787476,185.711472 202.339569,190.030975
	C203.245270,190.549011 204.433853,190.572464 205.491333,190.825150
	C204.965347,189.672470 204.703705,187.793823 203.868713,187.489792
	C199.732193,185.983505 195.489304,184.052261 191.200806,183.822662
	C180.739532,183.262619 172.255188,189.406464 168.975479,198.886536
	C166.098495,207.202499 169.242065,218.210724 175.932785,223.249680
	C184.008469,229.331726 196.270874,230.112625 203.443054,224.810379
	C204.483444,224.041214 204.866928,222.383453 205.554382,221.136856
	C204.299591,221.476898 202.849182,221.521622 201.820480,222.203003
	C192.277847,228.524002 175.412857,225.247681 171.716370,209.970581
z"/>
<path fill="#171717" opacity="1.000000" stroke="none"
	d="
M220.510193,204.888840
	C217.068741,212.414139 213.627274,219.939438 210.185822,227.464737
	C210.543289,227.810654 210.900757,228.156570 211.258224,228.502472
	C212.472504,227.320877 214.158615,226.358887 214.826813,224.923126
	C220.436752,212.869156 225.860031,200.728317 231.719055,187.774490
	C232.870010,190.110016 233.621521,191.541336 234.291672,193.009811
	C239.244904,203.863724 244.129898,214.749451 249.198105,225.549255
	C249.754196,226.734222 251.333145,227.439148 252.437668,228.366730
	C252.780640,228.006165 253.123596,227.645599 253.466568,227.285034
	C247.101257,213.453583 240.758682,199.611511 234.314819,185.816757
	C233.922653,184.977188 232.607697,183.890884 231.932068,184.019806
	C230.910187,184.214783 229.689148,185.192047 229.220154,186.160187
	C226.328751,192.128937 223.624649,198.188416 220.510193,204.888840
z"/>
<path fill="#171717" opacity="1.000000" stroke="none"
	d="
M270.569061,186.973373
	C273.896362,186.991974 277.240479,186.803513 280.547577,187.071503
	C287.854675,187.663620 291.832703,191.691742 292.009888,198.340912
	C292.181183,204.768616 288.742279,209.360046 282.311646,210.073807
	C275.601898,210.818558 268.808044,210.805176 262.075500,211.122070
	C260.980591,225.622375 261.284363,227.489563 265.152527,227.764084
	C265.152527,223.157532 265.152527,218.572281 265.152527,214.071976
	C271.358704,213.743042 277.193451,213.803818 282.917816,213.038681
	C290.419952,212.035950 294.965332,206.775696 295.294495,199.694153
	C295.660858,191.812012 292.181305,186.357803 284.230896,184.965317
	C276.996887,183.698334 269.497345,183.947662 262.114838,183.528610
	C261.908386,184.003143 261.701935,184.477692 261.495483,184.952225
	C262.206116,185.623703 262.849548,186.760529 263.640656,186.874741
	C265.596802,187.157166 267.620544,186.971313 270.569061,186.973373
z"/>
<path fill="#171717" opacity="1.000000" stroke="none"
	d="
M318.811584,218.407166
	C318.811584,208.008560 318.811584,197.609955 318.811584,187.012772
	C323.328369,187.012772 327.145660,187.130753 330.948059,186.944672
	C332.172760,186.884735 333.358307,186.024216 334.561768,185.529968
	C333.417542,184.971832 332.282166,183.952438 331.127625,183.930206
	C323.473816,183.782944 315.815887,183.849197 308.159302,183.846619
	C305.282043,183.845642 302.404785,183.846451 299.527527,183.846451
	C299.481628,184.441528 299.435730,185.036591 299.389832,185.631668
	C304.084137,188.977707 310.114563,185.530777 315.188843,187.657883
	C315.188843,192.590942 315.189270,197.415024 315.188721,202.239105
	C315.187866,209.895889 315.125336,217.553772 315.260956,225.208130
	C315.278290,226.186264 316.327118,227.146133 316.898071,228.114471
	C317.539307,227.197113 318.588409,226.340256 318.735352,225.349579
	C319.025177,223.395660 318.815002,221.367584 318.811584,218.407166
z"/>
<path fill="#171717" opacity="1.000000" stroke="none"
	d="
M342.179596,205.500000
	C342.179596,212.931107 342.179596,220.362213 342.179596,227.793320
	C342.659729,228.033981 343.139893,228.274643 343.620026,228.515305
	C344.368378,227.580139 345.758972,226.651520 345.768585,225.708847
	C345.909027,211.930832 345.865112,198.150940 345.865112,184.371506
	C345.355255,184.106705 344.845398,183.841919 344.335541,183.577133
	C343.616302,184.726013 342.318756,185.853638 342.275604,187.027359
	C342.061737,192.844955 342.179016,198.674698 342.179596,205.500000
z"/>
<path fill="#171717" opacity="1.000000" stroke="none"
	d="
M118.415375,226.365082
	C114.936729,223.155411 115.840935,219.984375 118.418510,216.741882
	C124.786346,208.731415 131.111816,200.687271 137.498215,192.601074
	C128.935974,190.329102 126.826057,191.069946 122.062996,197.828156
	C120.628334,199.863754 119.120209,201.847549 116.964066,204.059265
	C114.041679,208.890167 109.869064,206.403992 106.511154,206.917358
	C107.116264,205.299423 107.427986,203.479355 108.378677,202.099518
	C111.955086,196.908813 115.606453,191.755722 119.524353,186.822525
	C120.762314,185.263779 122.892578,183.485825 124.664246,183.431519
	C135.059357,183.112900 145.469223,183.274994 157.085159,183.274994
	C145.948257,195.911041 135.540558,207.719696 124.873039,220.121857
	C122.547264,222.598602 120.481316,224.481842 118.415375,226.365082
z"/>
<path fill="#2a2a2a" opacity="1.000000" stroke="none"
	d="
M118.618706,226.681732
	C120.481316,224.481842 122.547264,222.598602 124.802536,220.516602
	C126.630394,220.493500 128.266418,220.785812 129.907959,220.820923
	C133.510010,220.897980 137.114868,220.844818 141.754272,220.844818
	C140.193649,218.105179 139.291443,216.031860 137.954575,214.292648
	C136.084854,211.860138 136.470993,209.563385 138.900238,208.540482
	C140.587524,207.829987 144.038345,207.959930 144.846680,209.067703
	C149.210892,215.048492 152.995911,221.451904 157.745422,228.910568
	C154.140762,228.910568 151.759537,228.910385 149.378311,228.910583
	C141.563019,228.911240 133.743347,229.058426 125.935074,228.824860
	C123.547989,228.753464 121.192177,227.636505 118.618706,226.681732
z"/>
<path fill="#171717" opacity="1.000000" stroke="none"
	d="
M106.483948,207.256439
	C109.869064,206.403992 114.041679,208.890167 116.630142,204.129303
	C116.769661,204.754150 116.130157,205.818924 116.418602,206.225708
	C120.074303,211.381241 115.969841,214.311295 112.962364,218.424149
	C110.631470,214.544373 108.544106,211.069962 106.483948,207.256439
z"/>
</svg>
